<?xml version="1.0" encoding="utf-8"?>
<!-- Uploaded to: SVG Repo, www.svgrepo.com, Generator: SVG Repo Mixer Tools -->
<svg fill="#000000" version="1.1" id="earth" xmlns="http://www.w3.org/2000/svg" xmlns:xlink="http://www.w3.org/1999/xlink" 
	 width="800px" height="800px" viewBox="0 0 256 185" enable-background="new 0 0 256 185" xml:space="preserve">
<path d="M254,131.739V184l-72.663-33.204c-9.696-5.045-16.397-15.293-16.397-26.961V78.35c0-4.651,4.02-8.435,8.672-8.435
	s8.672,3.784,8.672,8.435v23.728c0,1.813,1.34,3.311,3.153,3.311s3.153-1.498,3.153-3.311V29.474c0-4.651,4.02-8.435,8.672-8.435
	c4.651,0,8.672,3.784,8.672,8.435v50.689c0,1.813,1.34,3.311,3.153,3.311c1.813,0,3.153-1.498,3.153-3.311V29.474
	c0-4.099-1.34-7.883-4.178-10.721c-0.631-0.788-2.128-1.34-2.128-1.971V10.87c0-4.651,3.626-8.435,8.277-8.435
	s8.277,3.784,8.277,8.435v69.214c0,1.813,1.34,3.311,3.153,3.311c1.813,0,3.153-1.498,3.153-3.311V16.073
	c0.788-0.158,1.104-0.158,1.734-0.158c4.651,0,8.514,3.784,8.514,8.435v93.81c0,3.942,2.444,7.41,5.755,9.066L254,131.739z
	 M4.788,53.402l11.967,93.414h39.968l11.851-93.414H19.66l-9.76-33.81l-5.345,1.51l9.295,32.184L4.788,53.402z M74.268,107.894
	c0,0-1.51-13.594,19.287-13.594h33.113c20.681,0,19.287,13.594,19.287,13.594H74.268z M145.839,133.222
	c0,0,1.394,13.594-19.287,13.594H93.555c-20.797,0-19.287-13.594-19.287-13.594H145.839z M77.405,126.6
	c-3.369,0-6.158-2.672-6.158-6.158c0-3.369,2.672-6.158,6.158-6.158h65.761c3.369,0,6.158,2.672,6.158,6.158
	c0,3.369-2.788,6.158-6.158,6.158H77.405z M150.718,165.173H2v-11.27h148.718V165.173z"/>
</svg>