<?xml version="1.0" encoding="iso-8859-1"?>
<!-- Uploaded to: SVG Repo, www.svgrepo.com, Generator: SVG Repo Mixer Tools -->
<svg height="800px" width="800px" version="1.1" id="Layer_1" xmlns="http://www.w3.org/2000/svg" xmlns:xlink="http://www.w3.org/1999/xlink" 
	 viewBox="0 0 501.551 501.551" xml:space="preserve">
<path style="fill:#F2F2F2;" d="M407.027,0H93.558C81.019,0,71.615,10.449,72.66,22.988l37.616,459.755
	c1.045,10.449,10.449,18.808,20.898,18.808h239.282c10.449,0,19.853-8.359,20.898-18.808L428.97,22.988
	C428.97,10.449,419.566,0,407.027,0z"/>
<path style="fill:#84DBFF;" d="M99.827,138.971l26.122,341.682c0,3.135,2.09,4.18,5.224,4.18h239.282c3.135,0,5.224-2.09,5.224-4.18
	l26.122-341.682H99.827z"/>
<g>
	<path style="fill:#FFFFFF;" d="M218.946,358.4h-63.739c-4.18,0-6.269,3.135-6.269,6.269v63.739c0,4.18,3.135,6.269,6.269,6.269
		h63.739c4.18,0,6.269-3.135,6.269-6.269v-63.739C225.215,361.535,222.08,358.4,218.946,358.4z"/>
	<path style="fill:#FFFFFF;" d="M356.872,379.298l-44.931-44.931c-2.09-2.09-7.314-2.09-9.404,0l-44.931,44.931
		c-2.09,2.09-2.09,7.314,0,9.404l44.931,44.931c2.09,2.09,7.314,2.09,9.404,0l44.931-44.931
		C358.962,386.612,358.962,382.433,356.872,379.298z"/>
	<path style="fill:#FFFFFF;" d="M264.921,275.853l-44.931-44.931c-2.09-2.09-7.314-2.09-9.404,0l-44.931,44.931
		c-2.09,2.09-2.09,7.314,0,9.404l44.931,44.931c2.09,2.09,7.314,2.09,9.404,0l44.931-44.931
		C268.056,282.122,268.056,277.943,264.921,275.853z"/>
</g>
</svg>